<svg width="206" height="28" viewBox="0 0 206 28" fill="none" xmlns="http://www.w3.org/2000/svg">
<g clip-path="url(#clip0_1_1297)">
<path fill-rule="evenodd" clip-rule="evenodd" d="M180.855 4.89488C180.507 4.89488 180.231 5.18494 180.231 5.5394V9.74073H179.453V5.5394C179.453 4.73149 180.082 4.08325 180.855 4.08325H202.478C203.251 4.08325 203.88 4.73149 203.88 5.5394V18.1435C203.88 18.9513 203.251 19.5996 202.478 19.5996H192.601V18.7879H202.478C202.826 18.7879 203.102 18.4979 203.102 18.1435V5.5394C203.102 5.18494 202.826 4.89488 202.478 4.89488H180.855Z" fill="white"/>
<path fill-rule="evenodd" clip-rule="evenodd" d="M195.416 10.8468C195.067 10.8468 194.791 11.1369 194.791 11.4913V19.8944C194.791 20.2488 195.067 20.5388 195.416 20.5388H198.794C199.143 20.5388 199.419 20.2488 199.419 19.8944V11.4913C199.419 11.1369 199.143 10.8468 198.794 10.8468H195.416ZM194.013 11.4913C194.013 10.6834 194.643 10.0352 195.416 10.0352H198.794C199.568 10.0352 200.197 10.6834 200.197 11.4913V19.8944C200.197 20.7023 199.568 21.3505 198.794 21.3505H195.416C194.643 21.3505 194.013 20.7023 194.013 19.8944V11.4913Z" fill="white"/>
<path fill-rule="evenodd" clip-rule="evenodd" d="M177.282 10.1449C176.934 10.1449 176.658 10.4349 176.658 10.7894V19.8923C176.658 20.2468 176.934 20.5369 177.282 20.5369H191.472C191.821 20.5369 192.097 20.2468 192.097 19.8923V10.7894C192.097 10.4349 191.821 10.1449 191.472 10.1449H177.282ZM175.88 10.7894C175.88 9.9815 176.509 9.33325 177.282 9.33325H191.472C192.245 9.33325 192.874 9.9815 192.874 10.7894V19.8923C192.874 20.7002 192.245 21.3485 191.472 21.3485H177.282C176.509 21.3485 175.88 20.7002 175.88 19.8923V10.7894Z" fill="white"/>
<path fill-rule="evenodd" clip-rule="evenodd" d="M175.88 21.9959C175.88 21.188 176.509 20.5398 177.282 20.5398H191.472C192.245 20.5398 192.874 21.188 192.874 21.9959V22.7519H175.88V21.9959ZM176.66 21.9403H192.094C192.067 21.6116 191.802 21.3514 191.472 21.3514H177.282C176.952 21.3514 176.687 21.6116 176.66 21.9403Z" fill="white"/>
</g>
<path d="M8.78899 12.094L9.74602 13.0442L8.78899 14.0081L7.83879 13.0442L8.78899 12.094ZM6.51945 12.094L7.47649 13.0442L6.51945 14.0081L5.56926 13.0442L6.51945 12.094ZM11.7831 14.6233L12.9247 14.4866L13.0409 16.0999C13.0683 16.5328 13.1936 16.8837 13.4169 17.1526C13.6402 17.4215 13.9729 17.5559 14.415 17.5559H14.5654V18.8H14.415C13.9 18.8 13.4762 18.7043 13.1435 18.5129C12.8154 18.317 12.5442 18.0048 12.33 17.5764C12.0794 17.8681 11.7831 18.1051 11.4413 18.2874C11.0995 18.4651 10.6848 18.595 10.1972 18.677C9.70956 18.759 9.11711 18.8 8.41985 18.8H7.27824C6.41692 18.8 5.66268 18.734 5.01555 18.6018C4.37297 18.4696 3.83521 18.2691 3.40227 18.0002C2.97388 17.7314 2.65031 17.3896 2.43156 16.9749C2.21737 16.5556 2.11028 16.0588 2.11028 15.4846C2.11028 15.1702 2.14445 14.8625 2.21281 14.5618C2.28573 14.261 2.37916 13.9716 2.49309 13.6936L3.55266 14.0901C3.47974 14.2906 3.41822 14.5048 3.36809 14.7327C3.32251 14.9605 3.29973 15.177 3.29973 15.3821C3.29973 15.7831 3.38404 16.1226 3.55266 16.4006C3.72128 16.6741 3.96965 16.8974 4.29778 17.0706C4.63046 17.2392 5.04517 17.3622 5.54192 17.4397C6.03866 17.5172 6.61744 17.5559 7.27824 17.5559H8.41985C9.14445 17.5559 9.75969 17.4967 10.2655 17.3782C10.776 17.2597 11.1656 17.0774 11.4345 16.8313C11.7034 16.5806 11.8378 16.2571 11.8378 15.8606C11.8378 15.6737 11.831 15.4664 11.8173 15.2385C11.8036 15.0107 11.7922 14.8056 11.7831 14.6233ZM15.078 18.8H14.3261V17.5559H15.0644C15.6751 17.5559 16.0829 17.4237 16.288 17.1594C16.4976 16.8905 16.6025 16.5282 16.6025 16.0725C16.6025 15.8173 16.5774 15.5006 16.5273 15.1223C16.4771 14.7441 16.3997 14.3681 16.2948 13.9944L17.4638 13.6799C17.5732 14.04 17.6506 14.4273 17.6962 14.842C17.7418 15.2568 17.7646 15.6305 17.7646 15.9631C17.7646 16.51 17.6894 16.9976 17.539 17.426C17.3932 17.8499 17.1266 18.1848 16.7392 18.4309C16.3518 18.677 15.7981 18.8 15.078 18.8ZM16.2607 10.6311L17.2519 11.6223L16.2607 12.6135L15.2695 11.6223L16.2607 10.6311ZM24.9355 16.7629C24.9355 16.4485 24.8785 16.1682 24.7646 15.9221C24.6506 15.6715 24.4911 15.4732 24.2861 15.3274C24.0855 15.1816 23.8554 15.1086 23.5956 15.1086C23.3814 15.1086 23.1923 15.1611 23.0282 15.2659C22.8687 15.3661 22.7275 15.5051 22.6044 15.6829C22.4859 15.856 22.3788 16.0543 22.2831 16.2776C22.192 16.5009 22.1099 16.7333 22.037 16.9749C22.3697 17.1207 22.6637 17.246 22.9189 17.3508C23.1741 17.4556 23.3928 17.5377 23.5751 17.5969C23.762 17.6516 23.9101 17.679 24.0195 17.679C24.3202 17.679 24.5481 17.5969 24.703 17.4329C24.858 17.2642 24.9355 17.0409 24.9355 16.7629ZM26.0429 16.1819C26.0794 16.4417 26.1568 16.6764 26.2753 16.886C26.3938 17.0911 26.5374 17.2551 26.706 17.3782C26.8792 17.4967 27.066 17.5559 27.2665 17.5559H27.4443V18.8H27.2665C26.9885 18.8 26.7128 18.7408 26.4394 18.6223C26.1705 18.5038 25.9472 18.3033 25.7695 18.0208C25.6145 18.3124 25.3935 18.5334 25.1064 18.6838C24.8193 18.8342 24.4524 18.9094 24.0058 18.9094C23.7369 18.9094 23.4635 18.8661 23.1855 18.7795C22.912 18.693 22.6477 18.595 22.3925 18.4856C22.1419 18.3717 21.9117 18.2714 21.7021 18.1848C21.4924 18.0982 21.317 18.0549 21.1757 18.0549C20.9843 18.0549 20.8294 18.1005 20.7109 18.1917C20.5924 18.2828 20.5012 18.4332 20.4374 18.6428C20.3736 18.8479 20.3303 19.1259 20.3075 19.4768C20.2848 19.8323 20.2734 20.2721 20.2734 20.7961C20.2734 21.106 20.2756 21.3818 20.2802 21.6233C20.2893 21.8694 20.3007 22.1109 20.3144 22.3479C20.3326 22.5849 20.3508 22.8538 20.3691 23.1545H19.1933C19.1705 22.7353 19.1523 22.3411 19.1386 21.9719C19.1249 21.6073 19.1181 21.2382 19.1181 20.8645C19.1181 20.3541 19.1318 19.8687 19.1591 19.4084C19.191 18.9482 19.2616 18.5334 19.371 18.1643C19.4849 17.7906 19.6604 17.483 19.8974 17.2415C20.1344 16.9954 20.4602 16.8336 20.8749 16.7561C21.0025 16.3095 21.1484 15.9107 21.3124 15.5598C21.4765 15.2089 21.6656 14.9104 21.8798 14.6643C22.094 14.4137 22.3401 14.2245 22.6181 14.0969C22.8961 13.9648 23.2128 13.8987 23.5683 13.8987C23.9876 13.8987 24.3726 13.9989 24.7236 14.1995C25.0745 14.3954 25.3661 14.6666 25.5986 15.0129C25.8355 15.3547 25.9836 15.7444 26.0429 16.1819ZM29.1396 15.8059V9.3186H30.3085V15.8264C30.3085 16.1591 30.3495 16.4576 30.4316 16.7219C30.5136 16.9817 30.6549 17.1868 30.8554 17.3372C31.0559 17.483 31.3316 17.5559 31.6825 17.5559H31.8876V18.8H31.6962C31.3544 18.8 31.0605 18.7613 30.8144 18.6838C30.5728 18.6018 30.3655 18.4833 30.1923 18.3284C30.0237 18.1734 29.8801 17.9843 29.7616 17.761C29.6113 17.9843 29.4586 18.1734 29.3036 18.3284C29.1532 18.4833 28.9596 18.6018 28.7226 18.6838C28.4902 18.7613 28.1711 18.8 27.7655 18.8H27.1913V17.5559H27.7519C28.1347 17.5559 28.4241 17.4807 28.62 17.3303C28.8206 17.1754 28.9573 16.9657 29.0302 16.7014C29.1031 16.4371 29.1396 16.1386 29.1396 15.8059ZM31.621 17.5559H32.1679V18.8H31.621V17.5559ZM34.0888 19.887L35.0458 20.8372L34.0888 21.801L33.1386 20.8372L34.0888 19.887ZM31.8193 19.887L32.7763 20.8372L31.8193 21.801L30.8691 20.8372L31.8193 19.887ZM34.205 14.6233L35.3466 14.4866L35.456 16.0862C35.4742 16.3778 35.538 16.6353 35.6474 16.8586C35.7568 17.0774 35.9094 17.2483 36.1054 17.3713C36.3059 17.4944 36.552 17.5559 36.8437 17.5559H36.9804V18.8H36.83C36.4928 18.8 36.2011 18.759 35.955 18.677C35.7089 18.595 35.4993 18.4765 35.3261 18.3215C35.1529 18.1666 35.0048 17.9775 34.8818 17.7542C34.6357 18.1142 34.3121 18.3785 33.9111 18.5471C33.51 18.7157 33.0907 18.8 32.6532 18.8H32.0107V17.5559H32.6532C33.232 17.5559 33.6445 17.4032 33.8905 17.0979C34.1412 16.7926 34.2665 16.371 34.2665 15.8333C34.2665 15.6145 34.2597 15.4071 34.246 15.2112C34.2369 15.0152 34.2232 14.8193 34.205 14.6233ZM39.8378 8.45728L40.829 9.44849L39.8378 10.4397L38.8466 9.44849L39.8378 8.45728ZM40.1591 15.1633C40.3687 15.1633 40.5761 15.1451 40.7812 15.1086C40.9908 15.0676 41.2004 15.0175 41.4101 14.9583C41.3827 14.7167 41.3372 14.4661 41.2734 14.2063C41.2141 13.9465 41.1298 13.705 41.0204 13.4817C40.9156 13.2584 40.7812 13.0784 40.6171 12.9417C40.453 12.8004 40.2502 12.7297 40.0087 12.7297C39.7262 12.7297 39.4983 12.8254 39.3251 13.0168C39.1565 13.2037 39.0335 13.427 38.956 13.6868C38.8831 13.942 38.8466 14.1744 38.8466 14.384C38.8466 14.6985 38.9583 14.9081 39.1816 15.0129C39.4094 15.1132 39.7353 15.1633 40.1591 15.1633ZM39.3183 17.5559C39.8333 17.5559 40.248 17.5263 40.5624 17.467C40.8814 17.4078 41.1139 17.2779 41.2597 17.0774C41.4101 16.8723 41.4853 16.5556 41.4853 16.1272C41.262 16.1956 41.0341 16.248 40.8017 16.2844C40.5738 16.3209 40.3277 16.3391 40.0634 16.3391C39.2932 16.3391 38.7122 16.1796 38.3202 15.8606C37.9329 15.5416 37.7392 15.0653 37.7392 14.4319C37.7392 14.0901 37.7848 13.7483 37.8759 13.4065C37.9716 13.0601 38.1129 12.7457 38.2997 12.4631C38.4911 12.176 38.7304 11.9459 39.0175 11.7727C39.3046 11.5995 39.6396 11.5129 40.0224 11.5129C40.4827 11.5129 40.8746 11.6314 41.1982 11.8684C41.5263 12.1008 41.7906 12.4153 41.9911 12.8118C42.1962 13.2037 42.3443 13.6458 42.4355 14.1379C42.5312 14.6301 42.579 15.1337 42.579 15.6487C42.579 16.3277 42.5175 16.8769 42.3945 17.2961C42.276 17.7109 42.0846 18.0276 41.8202 18.2463C41.5559 18.4605 41.2118 18.6064 40.788 18.6838C40.3642 18.7613 39.8469 18.8 39.2363 18.8H36.7343V17.5559H39.3183ZM51.7255 22.2522C50.7411 22.2522 49.9527 22.0722 49.3603 21.7122C48.7724 21.3521 48.3463 20.8713 48.082 20.2698C47.8222 19.6728 47.6923 19.0165 47.6923 18.301C47.6923 17.818 47.7424 17.3235 47.8427 16.8176C47.943 16.3072 48.0797 15.8105 48.2529 15.3274L49.3398 15.7649C49.2076 16.1842 49.096 16.6148 49.0048 17.0569C48.9137 17.4989 48.8681 17.9273 48.8681 18.342C48.8681 18.8342 48.9547 19.2831 49.1279 19.6887C49.3056 20.0943 49.6018 20.4179 50.0165 20.6594C50.4312 20.901 51.0009 21.0217 51.7255 21.0217C52.2086 21.0217 52.6529 20.9739 53.0585 20.8782C53.4641 20.787 53.815 20.6617 54.1113 20.5022C54.4075 20.3427 54.6376 20.1604 54.8017 19.9553C54.9657 19.7548 55.0478 19.5474 55.0478 19.3333C55.0478 19.1874 55.0045 19.0507 54.9179 18.9231C54.8313 18.7955 54.6741 18.7317 54.4462 18.7317H53.3388C53.0016 18.7317 52.7144 18.6907 52.4775 18.6086C52.245 18.5221 52.0582 18.399 51.9169 18.2395C51.7756 18.08 51.6731 17.8863 51.6093 17.6584C51.5455 17.4306 51.5136 17.1731 51.5136 16.886C51.5136 16.4348 51.5842 16.011 51.7255 15.6145C51.8668 15.2135 52.0696 14.8603 52.3339 14.5549C52.5982 14.245 52.9172 14.0035 53.2909 13.8303C53.6646 13.6571 54.0862 13.5706 54.5556 13.5706C54.7926 13.5706 55.0409 13.6025 55.3007 13.6663C55.565 13.7301 55.8294 13.8508 56.0937 14.0286L55.704 15.0676C55.5172 14.9719 55.3303 14.9036 55.1435 14.8625C54.9566 14.817 54.7607 14.7942 54.5556 14.7942C54.1682 14.7942 53.8355 14.8876 53.5575 15.0745C53.2841 15.2613 53.0745 15.5142 52.9286 15.8333C52.7828 16.1477 52.7099 16.4986 52.7099 16.886C52.7099 17.1002 52.7532 17.2574 52.8398 17.3577C52.9264 17.4534 53.1018 17.5012 53.3661 17.5012H54.5146C54.9338 17.5012 55.262 17.5787 55.4989 17.7336C55.7359 17.8886 55.9023 18.1028 55.998 18.3762C56.0982 18.6451 56.1484 18.955 56.1484 19.3059C56.1484 19.8118 55.9797 20.288 55.6425 20.7346C55.3098 21.1858 54.8154 21.5504 54.1591 21.8284C53.5029 22.1109 52.6917 22.2522 51.7255 22.2522ZM57.871 9.3186H59.04V15.9221C59.04 16.5647 59.1562 16.9976 59.3886 17.2209C59.6256 17.4443 59.9833 17.5559 60.4618 17.5559H60.6259V18.8H60.4618C59.5914 18.8 58.942 18.5699 58.5136 18.1096C58.0852 17.6448 57.871 16.9133 57.871 15.9153V9.3186ZM62.7861 15.676C62.7861 15.8538 62.8362 16.0338 62.9364 16.2161C63.0367 16.3984 63.1848 16.5693 63.3808 16.7288C63.5767 16.8837 63.8183 17.0159 64.1054 17.1252C64.3834 17.0113 64.6113 16.8814 64.789 16.7356C64.9713 16.5898 65.108 16.4303 65.1991 16.2571C65.2903 16.0793 65.3359 15.8902 65.3359 15.6897C65.3359 15.4254 65.2789 15.2043 65.165 15.0266C65.0556 14.8443 64.9075 14.7076 64.7206 14.6165C64.5383 14.5208 64.3355 14.4729 64.1122 14.4729C63.7203 14.4729 63.4013 14.5823 63.1552 14.801C62.9091 15.0198 62.7861 15.3114 62.7861 15.676ZM64.1532 13.2493L64.6933 12.2375C65.5136 12.6386 66.2268 13.0146 66.8329 13.3655C67.4436 13.7164 67.9495 14.0536 68.3505 14.3772C68.7516 14.7008 69.0523 15.0198 69.2529 15.3342C69.4534 15.6441 69.5536 15.9631 69.5536 16.2913C69.5536 17.0979 69.303 17.7063 68.8017 18.1165C68.3049 18.5266 67.6373 18.7317 66.7988 18.7317C66.4843 18.7317 66.1493 18.7066 65.7939 18.6565C65.4384 18.6064 65.1012 18.5448 64.7822 18.4719C64.4631 18.3944 64.1943 18.3193 63.9755 18.2463C63.579 18.3922 63.1142 18.5221 62.581 18.636C62.0478 18.7454 61.5328 18.8 61.0361 18.8H60.373V17.5559H60.9472C61.248 17.5559 61.5123 17.5491 61.7402 17.5354C61.9726 17.5217 62.2255 17.4989 62.4989 17.467C62.2893 17.2984 62.1184 17.1184 61.9863 16.927C61.8586 16.7356 61.7629 16.5351 61.6991 16.3254C61.6399 16.1158 61.6103 15.9039 61.6103 15.6897C61.6103 15.2157 61.7219 14.8079 61.9452 14.4661C62.1685 14.1243 62.4648 13.8622 62.8339 13.6799C63.203 13.4931 63.6064 13.3997 64.0439 13.3997C64.454 13.3997 64.8368 13.4999 65.1923 13.7004C65.5523 13.901 65.8417 14.1653 66.0605 14.4934C66.2792 14.817 66.3886 15.1724 66.3886 15.5598C66.3886 15.8424 66.3499 16.0976 66.2724 16.3254C66.1949 16.5533 66.081 16.7629 65.9306 16.9543C65.7848 17.1412 65.6047 17.3212 65.3905 17.4944C65.5911 17.5172 65.8098 17.54 66.0468 17.5627C66.2838 17.581 66.4934 17.5901 66.6757 17.5901C67.2271 17.5901 67.6464 17.4875 67.9335 17.2825C68.2252 17.0728 68.371 16.7493 68.371 16.3118C68.371 16.1386 68.2913 15.954 68.1318 15.7581C67.9768 15.5575 67.7626 15.3525 67.4892 15.1428C67.2157 14.9286 66.899 14.7144 66.539 14.5002C66.1835 14.2815 65.8007 14.0673 65.3905 13.8577C64.9849 13.648 64.5725 13.4452 64.1532 13.2493ZM78.6249 13.5159L79.6161 14.5071L78.6249 15.4983L77.6337 14.5071L78.6249 13.5159ZM78.7001 21.0901C79.4612 21.0901 80.0491 20.9648 80.4638 20.7141C80.8831 20.468 81.1747 20.1422 81.3388 19.7366C81.5074 19.3355 81.5917 18.9049 81.5917 18.4446C81.5917 17.9023 81.5188 17.3668 81.373 16.8381C81.2271 16.3095 81.0904 15.8765 80.9628 15.5393L82.1318 15.0676L82.6376 16.6672C82.7288 16.9589 82.8769 17.1799 83.082 17.3303C83.2916 17.4807 83.5833 17.5559 83.957 17.5559H84.2167V18.8H83.9843C83.6653 18.8 83.4215 18.7704 83.2529 18.7112C83.0888 18.6519 82.9338 18.5517 82.788 18.4104C82.7835 19.1715 82.6376 19.8459 82.3505 20.4338C82.0634 21.0263 81.6191 21.4889 81.0175 21.8215C80.4205 22.1542 79.648 22.3206 78.7001 22.3206C77.7157 22.3206 76.9273 22.1405 76.3349 21.7805C75.747 21.4205 75.3209 20.9397 75.0566 20.3381C74.7968 19.7411 74.6669 19.0849 74.6669 18.3694C74.6669 17.8863 74.717 17.3918 74.8173 16.886C74.9176 16.3756 75.0543 15.8788 75.2275 15.3958L76.3144 15.8333C76.1822 16.2525 76.0706 16.6832 75.9794 17.1252C75.8883 17.5673 75.8427 17.9957 75.8427 18.4104C75.8427 18.9026 75.9293 19.3515 76.1025 19.7571C76.2802 20.1627 76.5764 20.4862 76.9911 20.7278C77.4058 20.9693 77.9755 21.0901 78.7001 21.0901ZM90.1845 9.74243L91.1073 10.6653L90.1845 11.5881L89.2616 10.6653L90.1845 9.74243ZM91.3534 11.4719L92.2763 12.3948L91.3534 13.3176L90.4306 12.3948L91.3534 11.4719ZM89.0155 11.4719L89.9384 12.3948L89.0155 13.3176L88.0927 12.3948L89.0155 11.4719ZM92.372 18.8C91.9345 18.8 91.5745 18.7089 91.2919 18.5266C91.0139 18.3443 90.7906 18.0868 90.622 17.7542C90.3668 18.1233 90.066 18.3899 89.7197 18.554C89.3733 18.718 89.0178 18.8 88.6532 18.8C88.1292 18.8 87.7236 18.7112 87.4364 18.5334C87.1539 18.3512 86.9283 18.0914 86.7597 17.7542C86.5455 18.0914 86.2607 18.3512 85.9052 18.5334C85.5497 18.7112 85.0644 18.8 84.4491 18.8H83.9706V17.5559H84.4628C85.0461 17.5559 85.4836 17.4237 85.7753 17.1594C86.067 16.8905 86.2128 16.469 86.2128 15.8948C86.2128 15.8127 86.2105 15.7284 86.206 15.6418C86.2014 15.5553 86.1946 15.4482 86.1855 15.3206C86.1764 15.193 86.1627 15.0334 86.1445 14.842L87.2861 14.6985L87.3954 16.093C87.4137 16.3482 87.4706 16.5875 87.5663 16.8108C87.6666 17.0341 87.8079 17.2141 87.9902 17.3508C88.1724 17.4875 88.398 17.5559 88.6669 17.5559C89.15 17.5559 89.4941 17.401 89.6991 17.0911C89.9088 16.7812 90.0136 16.3824 90.0136 15.8948C90.0136 15.8127 90.0113 15.7284 90.0068 15.6418C90.0022 15.5507 89.9954 15.4436 89.9863 15.3206C89.9771 15.193 89.9635 15.0334 89.9452 14.842L91.0868 14.6985L91.1962 16.093C91.2144 16.3391 91.2646 16.5738 91.3466 16.7971C91.4332 17.0204 91.5585 17.2027 91.7226 17.344C91.8912 17.4853 92.1054 17.5559 92.3652 17.5559C92.593 17.5559 92.7799 17.4875 92.9257 17.3508C93.0761 17.2141 93.1877 17.0227 93.2607 16.7766C93.3381 16.526 93.3769 16.2366 93.3769 15.9084C93.3769 15.7444 93.37 15.5735 93.3564 15.3958C93.3473 15.218 93.3313 14.9833 93.3085 14.6917L94.4501 14.5549L94.5595 16.093C94.5777 16.3847 94.6415 16.6399 94.7509 16.8586C94.8603 17.0774 95.0107 17.2483 95.2021 17.3713C95.398 17.4944 95.635 17.5559 95.913 17.5559H96.1044V18.8H95.9267C95.4482 18.8 95.0494 18.7135 94.7304 18.5403C94.4114 18.3625 94.1926 18.0982 94.0741 17.7473C93.8827 18.0846 93.6617 18.3443 93.4111 18.5266C93.165 18.7089 92.8186 18.8 92.372 18.8ZM95.8378 17.5559H96.3847V18.8H95.8378V17.5559ZM98.3056 19.887L99.2626 20.8372L98.3056 21.801L97.3554 20.8372L98.3056 19.887ZM96.0361 19.887L96.9931 20.8372L96.0361 21.801L95.0859 20.8372L96.0361 19.887ZM98.4218 14.6233L99.5634 14.4866L99.6728 16.0862C99.691 16.3778 99.7548 16.6353 99.8642 16.8586C99.9736 17.0774 100.126 17.2483 100.322 17.3713C100.523 17.4944 100.769 17.5559 101.06 17.5559H101.197V18.8H101.047C100.71 18.8 100.418 18.759 100.172 18.677C99.9257 18.595 99.7161 18.4765 99.5429 18.3215C99.3697 18.1666 99.2216 17.9775 99.0986 17.7542C98.8525 18.1142 98.5289 18.3785 98.1279 18.5471C97.7268 18.7157 97.3075 18.8 96.87 18.8H96.2275V17.5559H96.87C97.4488 17.5559 97.8613 17.4032 98.1073 17.0979C98.358 16.7926 98.4833 16.371 98.4833 15.8333C98.4833 15.6145 98.4765 15.4071 98.4628 15.2112C98.4537 15.0152 98.44 14.8193 98.4218 14.6233ZM102.578 12.1692C102.888 12.3879 103.191 12.6044 103.487 12.8186C103.788 13.0328 104.075 13.2515 104.349 13.4749C104.627 13.6936 104.884 13.926 105.121 14.1721C105.363 14.4137 105.579 14.6757 105.77 14.9583C105.966 15.2362 106.133 15.5393 106.269 15.8674C106.434 16.2594 106.598 16.5806 106.762 16.8313C106.93 17.0774 107.126 17.2597 107.35 17.3782C107.573 17.4967 107.846 17.5559 108.17 17.5559H108.361V18.8H108.17C107.664 18.8 107.233 18.7021 106.878 18.5061C106.527 18.3101 106.212 17.998 105.934 17.5696C105.752 17.8385 105.529 18.064 105.265 18.2463C105.005 18.4286 104.663 18.5676 104.239 18.6633C103.82 18.7545 103.275 18.8 102.605 18.8H100.951V17.5559H102.599C103.191 17.5559 103.667 17.524 104.027 17.4602C104.392 17.3918 104.656 17.2734 104.82 17.1047C104.989 16.9316 105.073 16.69 105.073 16.3801C105.073 16.1386 105.003 15.9016 104.861 15.6692C104.725 15.4368 104.538 15.2089 104.301 14.9856C104.068 14.7577 103.809 14.5344 103.521 14.3157C103.234 14.0969 102.938 13.8805 102.633 13.6663C102.332 13.4475 102.047 13.231 101.778 13.0168C101.632 12.8984 101.518 12.773 101.436 12.6409C101.354 12.5042 101.313 12.3583 101.313 12.2034C101.313 12.012 101.368 11.8206 101.477 11.6292C101.591 11.4377 101.753 11.2987 101.963 11.2122L106.878 9.21606V10.426L102.578 12.1692ZM108.074 17.5559H108.621V18.8H108.074V17.5559ZM110.542 19.887L111.499 20.8372L110.542 21.801L109.592 20.8372L110.542 19.887ZM108.272 19.887L109.229 20.8372L108.272 21.801L107.322 20.8372L108.272 19.887ZM110.658 14.6233L111.8 14.4866L111.909 16.0862C111.927 16.3778 111.991 16.6353 112.101 16.8586C112.21 17.0774 112.363 17.2483 112.559 17.3713C112.759 17.4944 113.005 17.5559 113.297 17.5559H113.434V18.8H113.283C112.946 18.8 112.654 18.759 112.408 18.677C112.162 18.595 111.952 18.4765 111.779 18.3215C111.606 18.1666 111.458 17.9775 111.335 17.7542C111.089 18.1142 110.765 18.3785 110.364 18.5471C109.963 18.7157 109.544 18.8 109.106 18.8H108.464V17.5559H109.106C109.685 17.5559 110.098 17.4032 110.344 17.0979C110.594 16.7926 110.72 16.371 110.72 15.8333C110.72 15.6145 110.713 15.4071 110.699 15.2112C110.69 15.0152 110.676 14.8193 110.658 14.6233ZM115.136 15.8059V9.3186H116.305V15.8264C116.305 16.1591 116.346 16.4576 116.428 16.7219C116.51 16.9817 116.651 17.1868 116.851 17.3372C117.052 17.483 117.328 17.5559 117.679 17.5559H117.884V18.8H117.692C117.351 18.8 117.057 18.7613 116.81 18.6838C116.569 18.6018 116.362 18.4833 116.188 18.3284C116.02 18.1734 115.876 17.9843 115.758 17.761C115.607 17.9843 115.455 18.1734 115.3 18.3284C115.149 18.4833 114.956 18.6018 114.719 18.6838C114.486 18.7613 114.167 18.8 113.762 18.8H113.187V17.5559H113.748C114.131 17.5559 114.42 17.4807 114.616 17.3303C114.817 17.1754 114.953 16.9657 115.026 16.7014C115.099 16.4371 115.136 16.1386 115.136 15.8059ZM117.617 17.5559H118.164V18.8H117.617V17.5559ZM118.923 21.3909L119.846 22.3137L118.923 23.2366L118 22.3137L118.923 21.3909ZM120.092 19.6614L121.015 20.5842L120.092 21.5071L119.169 20.5842L120.092 19.6614ZM117.754 19.6614L118.677 20.5842L117.754 21.5071L116.831 20.5842L117.754 19.6614ZM118.766 18.8H118.014V17.5559H118.752C119.363 17.5559 119.77 17.4237 119.976 17.1594C120.185 16.8905 120.29 16.5282 120.29 16.0725C120.29 15.8173 120.265 15.5006 120.215 15.1223C120.165 14.7441 120.087 14.3681 119.982 13.9944L121.151 13.6799C121.261 14.04 121.338 14.4273 121.384 14.842C121.429 15.2568 121.452 15.6305 121.452 15.9631C121.452 16.51 121.377 16.9976 121.226 17.426C121.081 17.8499 120.814 18.1848 120.427 18.4309C120.039 18.677 119.486 18.8 118.766 18.8ZM124.337 9.3186V18.7932H123.168V9.3186H124.337ZM136.498 12.094L137.455 13.0442L136.498 14.0081L135.548 13.0442L136.498 12.094ZM134.228 12.094L135.185 13.0442L134.228 14.0081L133.278 13.0442L134.228 12.094ZM139.492 14.6233L140.634 14.4866L140.75 16.0999C140.777 16.5328 140.903 16.8837 141.126 17.1526C141.349 17.4215 141.682 17.5559 142.124 17.5559H142.274V18.8H142.124C141.609 18.8 141.185 18.7043 140.852 18.5129C140.524 18.317 140.253 18.0048 140.039 17.5764C139.788 17.8681 139.492 18.1051 139.15 18.2874C138.809 18.4651 138.394 18.595 137.906 18.677C137.419 18.759 136.826 18.8 136.129 18.8H134.987C134.126 18.8 133.372 18.734 132.725 18.6018C132.082 18.4696 131.544 18.2691 131.111 18.0002C130.683 17.7314 130.359 17.3896 130.141 16.9749C129.926 16.5556 129.819 16.0588 129.819 15.4846C129.819 15.1702 129.853 14.8625 129.922 14.5618C129.995 14.261 130.088 13.9716 130.202 13.6936L131.262 14.0901C131.189 14.2906 131.127 14.5048 131.077 14.7327C131.031 14.9605 131.009 15.177 131.009 15.3821C131.009 15.7831 131.093 16.1226 131.262 16.4006C131.43 16.6741 131.679 16.8974 132.007 17.0706C132.339 17.2392 132.754 17.3622 133.251 17.4397C133.748 17.5172 134.326 17.5559 134.987 17.5559H136.129C136.853 17.5559 137.469 17.4967 137.975 17.3782C138.485 17.2597 138.875 17.0774 139.143 16.8313C139.412 16.5806 139.547 16.2571 139.547 15.8606C139.547 15.6737 139.54 15.4664 139.526 15.2385C139.513 15.0107 139.501 14.8056 139.492 14.6233ZM145.139 8.45728L146.13 9.44849L145.139 10.4397L144.147 9.44849L145.139 8.45728ZM145.46 15.1633C145.67 15.1633 145.877 15.1451 146.082 15.1086C146.292 15.0676 146.501 15.0175 146.711 14.9583C146.684 14.7167 146.638 14.4661 146.574 14.2063C146.515 13.9465 146.431 13.705 146.321 13.4817C146.216 13.2584 146.082 13.0784 145.918 12.9417C145.754 12.8004 145.551 12.7297 145.309 12.7297C145.027 12.7297 144.799 12.8254 144.626 13.0168C144.457 13.2037 144.334 13.427 144.257 13.6868C144.184 13.942 144.147 14.1744 144.147 14.384C144.147 14.6985 144.259 14.9081 144.482 15.0129C144.71 15.1132 145.036 15.1633 145.46 15.1633ZM144.619 17.5559C145.134 17.5559 145.549 17.5263 145.863 17.467C146.182 17.4078 146.415 17.2779 146.56 17.0774C146.711 16.8723 146.786 16.5556 146.786 16.1272C146.563 16.1956 146.335 16.248 146.102 16.2844C145.875 16.3209 145.629 16.3391 145.364 16.3391C144.594 16.3391 144.013 16.1796 143.621 15.8606C143.234 15.5416 143.04 15.0653 143.04 14.4319C143.04 14.0901 143.086 13.7483 143.177 13.4065C143.272 13.0601 143.414 12.7457 143.601 12.4631C143.792 12.176 144.031 11.9459 144.318 11.7727C144.605 11.5995 144.94 11.5129 145.323 11.5129C145.783 11.5129 146.175 11.6314 146.499 11.8684C146.827 12.1008 147.091 12.4153 147.292 12.8118C147.497 13.2037 147.645 13.6458 147.736 14.1379C147.832 14.6301 147.88 15.1337 147.88 15.6487C147.88 16.3277 147.818 16.8769 147.695 17.2961C147.577 17.7109 147.385 18.0276 147.121 18.2463C146.857 18.4605 146.513 18.6064 146.089 18.6838C145.665 18.7613 145.148 18.8 144.537 18.8H142.035V17.5559H144.619ZM149.596 9.3186H150.765V15.9221C150.765 16.5647 150.881 16.9976 151.113 17.2209C151.35 17.4443 151.708 17.5559 152.186 17.5559H152.351V18.8H152.186C151.316 18.8 150.667 18.5699 150.238 18.1096C149.81 17.6448 149.596 16.9133 149.596 15.9153V9.3186ZM152.07 17.5559H152.617V18.8H152.07V17.5559ZM154.538 19.887L155.495 20.8372L154.538 21.801L153.588 20.8372L154.538 19.887ZM152.268 19.887L153.226 20.8372L152.268 21.801L151.318 20.8372L152.268 19.887ZM153.219 18.8H152.467V17.5559H153.205C153.816 17.5559 154.224 17.4237 154.429 17.1594C154.638 16.8905 154.743 16.5282 154.743 16.0725C154.743 15.8173 154.718 15.5006 154.668 15.1223C154.618 14.7441 154.54 14.3681 154.435 13.9944L155.604 13.6799C155.714 14.04 155.791 14.4273 155.837 14.842C155.882 15.2568 155.905 15.6305 155.905 15.9631C155.905 16.51 155.83 16.9976 155.68 17.426C155.534 17.8499 155.267 18.1848 154.88 18.4309C154.492 18.677 153.939 18.8 153.219 18.8ZM156.903 22.4778L156.5 21.3909C157.243 21.2314 157.835 20.9875 158.277 20.6594C158.719 20.3359 159.038 19.9462 159.234 19.4905C159.435 19.0347 159.535 18.5312 159.535 17.9797C159.535 17.5924 159.492 17.1868 159.405 16.7629C159.323 16.3346 159.207 15.8993 159.057 15.4573L160.191 15.0745C160.351 15.5302 160.472 15.9859 160.554 16.4417C160.64 16.8974 160.684 17.3417 160.684 17.7747C160.684 18.5357 160.549 19.2398 160.28 19.887C160.016 20.5387 159.603 21.0901 159.043 21.5413C158.487 21.997 157.774 22.3092 156.903 22.4778ZM163.609 17.5696C164.202 17.5696 164.692 17.5194 165.079 17.4192C165.466 17.3144 165.756 17.1617 165.947 16.9612C166.139 16.7607 166.234 16.51 166.234 16.2092C166.234 15.9221 166.139 15.6259 165.947 15.3206C165.756 15.0152 165.453 14.6962 165.038 14.3635C164.623 14.0263 164.079 13.6731 163.404 13.304L163.944 12.2239C164.528 12.5247 165.036 12.8323 165.469 13.1467C165.906 13.4612 166.266 13.7847 166.549 14.1174C166.836 14.4501 167.05 14.7896 167.191 15.136C167.333 15.4778 167.403 15.8287 167.403 16.1887C167.403 16.7584 167.273 17.2369 167.014 17.6243C166.754 18.0116 166.353 18.3033 165.81 18.4993C165.268 18.6907 164.569 18.7864 163.712 18.7864C163.416 18.7864 163.126 18.7727 162.844 18.7454C162.566 18.718 162.304 18.677 162.058 18.6223V17.385C162.354 17.4443 162.629 17.4898 162.885 17.5217C163.144 17.5536 163.386 17.5696 163.609 17.5696Z" fill="white"/>
<defs>
<clipPath id="clip0_1_1297">
<rect width="28" height="28" fill="white" transform="translate(175.88)"/>
</clipPath>
</defs>
</svg>
