<svg width="150" height="45" viewBox="0 0 150 45" fill="none" xmlns="http://www.w3.org/2000/svg">
<rect x="0.719971" y="0.219971" width="148.63" height="43.98" rx="8" fill="#8F8F8F" fill-opacity="0.5"/>
<g clip-path="url(#clip0_1_28)">
<path d="M119.683 13.563C116.559 16.687 116.559 21.753 119.683 24.877C122.807 28.001 127.873 28.001 130.997 24.877C134.121 21.753 134.121 16.687 130.997 13.563C127.873 10.439 122.807 10.439 119.683 13.563ZM125.661 14.5762C126.336 14.5762 126.877 15.1334 126.877 15.8089C126.877 16.4844 126.319 17.0416 125.661 17.0416C124.985 17.0416 124.428 16.4844 124.428 15.792C124.428 15.1165 124.985 14.5762 125.661 14.5762ZM127.4 22.8337C127.366 22.935 127.299 23.0532 127.231 23.1208C126.792 23.5767 126.252 23.8469 125.61 23.8469C125.306 23.8469 125.019 23.8469 124.715 23.7963C124.225 23.7287 123.601 23.1208 123.685 22.4791C123.753 22.0401 123.82 21.601 123.888 21.1619C124.023 20.402 124.158 19.6253 124.293 18.8654C124.293 18.8147 124.31 18.764 124.31 18.7134C124.31 18.3925 124.209 18.2743 123.888 18.2406C123.753 18.2237 123.618 18.2068 123.482 18.173C123.33 18.1223 123.246 17.9872 123.263 17.8691C123.28 17.734 123.364 17.6495 123.533 17.6158C123.618 17.5989 123.719 17.5989 123.82 17.5989C124.192 17.5989 124.563 17.5989 124.952 17.5989C125.357 17.5989 125.745 17.5989 126.151 17.5989C126.438 17.5989 126.606 17.734 126.606 18.021C126.606 18.2574 126.573 18.4939 126.522 18.7303C126.37 19.6084 126.201 20.4696 126.049 21.3477C125.999 21.6348 125.931 21.9218 125.897 22.2089C125.88 22.344 125.897 22.496 125.931 22.6311C125.982 22.8168 126.117 22.9182 126.302 22.9013C126.454 22.8844 126.606 22.8337 126.758 22.7662C126.877 22.7155 126.978 22.6311 127.096 22.5973C127.299 22.5298 127.451 22.648 127.4 22.8337Z" fill="white"/>
</g>
<path d="M23.5959 24.42C23.2938 24.42 23.0282 24.3835 22.799 24.3106C22.5751 24.2325 22.3954 24.1439 22.26 24.045C22.1558 24.7794 21.9292 25.4616 21.5803 26.0919C21.2313 26.7221 20.7417 27.2585 20.1115 27.7012C19.4865 28.1439 18.6975 28.459 17.7443 28.6465L17.1506 27.0372C17.9579 26.8601 18.622 26.6075 19.1428 26.2794C19.6688 25.9564 20.0595 25.5502 20.3147 25.0606C20.5699 24.5762 20.6975 24.0007 20.6975 23.334C20.6975 22.8757 20.6376 22.3809 20.5178 21.8497C20.398 21.3184 20.2522 20.7976 20.0803 20.2872L21.7287 19.7403L22.1662 21.4356C22.2704 21.8314 22.4292 22.1309 22.6428 22.334C22.8563 22.532 23.1454 22.6309 23.51 22.6309H23.799V24.42H23.5959ZM23.4943 22.6309H24.049V24.42H23.4943V22.6309ZM26.9397 15.3887L28.1428 16.5762L26.9397 17.7872L25.7522 16.5762L26.9397 15.3887ZM24.3303 15.3887L25.5334 16.5762L24.3303 17.7872L23.135 16.5762L24.3303 15.3887ZM26.2131 19.3184L27.799 19.1231L27.9397 21.1309C27.9553 21.433 28.0178 21.6986 28.1272 21.9278C28.2365 22.1518 28.3928 22.3262 28.5959 22.4512C28.8042 22.571 29.0647 22.6309 29.3772 22.6309H29.5334V24.42H29.3615C28.9917 24.42 28.6662 24.3757 28.385 24.2872C28.1037 24.1934 27.8589 24.0658 27.6506 23.9044C27.4475 23.7377 27.2704 23.5372 27.1193 23.3028C26.8277 23.6726 26.4553 23.9512 26.0022 24.1387C25.5542 24.3262 25.0829 24.42 24.5881 24.42H23.8537V22.6309H24.5881C25.2131 22.6309 25.6506 22.4799 25.9006 22.1778C26.1558 21.8705 26.2834 21.4304 26.2834 20.8575C26.2834 20.5866 26.2756 20.3236 26.26 20.0684C26.2496 19.8132 26.2339 19.5632 26.2131 19.3184ZM36.3459 13.6856L37.4865 14.8262L36.3459 15.9669L35.2053 14.8262L36.3459 13.6856ZM37.6975 15.67L38.8381 16.8106L37.6975 17.9512L36.549 16.8106L37.6975 15.67ZM35.0022 15.67L36.1428 16.8106L35.0022 17.9512L33.8537 16.8106L35.0022 15.67ZM38.8459 24.42C38.3615 24.42 37.9553 24.321 37.6272 24.1231C37.299 23.92 37.0334 23.6491 36.8303 23.3106C36.549 23.67 36.2131 23.946 35.8225 24.1387C35.4371 24.3262 35.0282 24.42 34.5959 24.42C34.0282 24.42 33.5751 24.3236 33.2365 24.1309C32.898 23.933 32.6246 23.6622 32.4162 23.3184C32.1506 23.6674 31.8121 23.9382 31.4006 24.1309C30.9891 24.3236 30.4527 24.42 29.7912 24.42H29.2443V22.6309H29.8068C30.4318 22.6309 30.8954 22.5033 31.1975 22.2481C31.5048 21.9877 31.6584 21.5554 31.6584 20.9512C31.6584 20.8627 31.6532 20.7507 31.6428 20.6153C31.6376 20.4799 31.6272 20.3236 31.6115 20.1465C31.6011 19.9643 31.5881 19.7689 31.5725 19.5606L33.1662 19.3653L33.3068 21.17C33.3225 21.4356 33.3798 21.6804 33.4787 21.9044C33.5829 22.1231 33.7287 22.3002 33.9162 22.4356C34.1037 22.5658 34.3355 22.6309 34.6115 22.6309C35.1115 22.6309 35.4683 22.4799 35.6818 22.1778C35.8954 21.8757 36.0022 21.4669 36.0022 20.9512C36.0022 20.8679 35.9996 20.7585 35.9943 20.6231C35.9891 20.4825 35.9787 20.3236 35.9631 20.1465C35.9475 19.9643 35.9318 19.7689 35.9162 19.5606L37.51 19.3653L37.6506 21.17C37.6662 21.42 37.7157 21.657 37.799 21.8809C37.8876 22.1049 38.0152 22.2872 38.1818 22.4278C38.3537 22.5632 38.5699 22.6309 38.8303 22.6309C39.0699 22.6309 39.2626 22.5606 39.4084 22.42C39.5595 22.2794 39.6688 22.084 39.7365 21.834C39.8095 21.5788 39.8459 21.2898 39.8459 20.9669C39.8459 20.7794 39.8381 20.5528 39.8225 20.2872C39.8068 20.0163 39.786 19.7169 39.76 19.3887L41.3537 19.1934L41.4943 21.17C41.51 21.4669 41.5725 21.7247 41.6818 21.9434C41.7912 22.1622 41.9449 22.3314 42.1428 22.4512C42.3459 22.571 42.5959 22.6309 42.8928 22.6309H43.1115V24.42H42.9084C42.3928 24.42 41.9501 24.3288 41.5803 24.1465C41.2157 23.959 40.9501 23.6882 40.7834 23.334C40.5647 23.6674 40.3068 23.933 40.01 24.1309C39.7131 24.3236 39.3251 24.42 38.8459 24.42ZM42.8068 22.6309H43.4318V24.42H42.8068V22.6309ZM45.635 25.5528L46.8381 26.7481L45.635 27.959L44.4475 26.7481L45.635 25.5528ZM43.0256 25.5528L44.2287 26.7481L43.0256 27.959L41.8303 26.7481L43.0256 25.5528ZM45.6115 19.3184L47.1975 19.1231L47.3381 21.1309C47.3537 21.433 47.4162 21.6986 47.5256 21.9278C47.635 22.1518 47.7912 22.3262 47.9943 22.4512C48.2027 22.571 48.4631 22.6309 48.7756 22.6309H48.9318V24.42H48.76C48.3902 24.42 48.0647 24.3757 47.7834 24.2872C47.5022 24.1934 47.2574 24.0658 47.049 23.9044C46.8459 23.7377 46.6688 23.5372 46.5178 23.3028C46.2261 23.6726 45.8537 23.9512 45.4006 24.1387C44.9527 24.3262 44.4813 24.42 43.9865 24.42H43.2522V22.6309H43.9865C44.6115 22.6309 45.049 22.4799 45.299 22.1778C45.5542 21.8705 45.6818 21.4304 45.6818 20.8575C45.6818 20.5866 45.674 20.3236 45.6584 20.0684C45.648 19.8132 45.6324 19.5632 45.6115 19.3184ZM48.6272 22.6309H49.0022V24.42H48.6272V22.6309ZM50.2365 25.4981L51.4865 26.7481L50.2365 27.9981L48.9865 26.7481L50.2365 25.4981ZM49.6662 24.42H48.8068V22.6309H49.6506C50.2443 22.6309 50.6584 22.5111 50.8928 22.2715C51.1324 22.032 51.2522 21.6596 51.2522 21.1544C51.2522 20.8627 51.2209 20.4955 51.1584 20.0528C51.1011 19.6049 51.0048 19.1283 50.8693 18.6231L52.51 18.1856C52.6402 18.6491 52.7339 19.1231 52.7912 19.6075C52.8485 20.0919 52.8772 20.5424 52.8772 20.959C52.8772 21.6413 52.7808 22.2429 52.5881 22.7637C52.4006 23.2794 52.0725 23.6856 51.6037 23.9825C51.1402 24.2741 50.4943 24.42 49.6662 24.42ZM66.1818 24.42H64.5256C63.5777 24.42 62.7287 24.3497 61.9787 24.209C61.2339 24.0632 60.6011 23.834 60.0803 23.5215C59.5595 23.209 59.161 22.8054 58.885 22.3106C58.6141 21.8106 58.4787 21.2012 58.4787 20.4825C58.4787 20.0762 58.523 19.6804 58.6115 19.295C58.7053 18.9044 58.8225 18.5372 58.9631 18.1934L60.4631 18.7559C60.3798 18.9903 60.3016 19.2533 60.2287 19.545C60.161 19.8314 60.1272 20.1049 60.1272 20.3653C60.1272 20.7976 60.2287 21.1596 60.4318 21.4512C60.6402 21.7429 60.9345 21.9747 61.3147 22.1465C61.7001 22.3184 62.161 22.4434 62.6975 22.5215C63.2391 22.5945 63.8485 22.6309 64.5256 22.6309H66.1975C66.5621 22.6309 66.9397 22.6179 67.3303 22.5919C67.7209 22.5658 68.0855 22.5059 68.424 22.4122C68.7678 22.3132 69.0438 22.1622 69.2522 21.959C69.4657 21.7559 69.5725 21.4799 69.5725 21.1309C69.5725 20.8913 69.5386 20.5372 69.4709 20.0684C69.4084 19.5945 69.3147 19.1179 69.1897 18.6387L70.8225 18.1934C70.911 18.459 70.9839 18.7689 71.0412 19.1231C71.0985 19.4773 71.1402 19.821 71.1662 20.1544C71.1923 20.4877 71.2053 20.7507 71.2053 20.9434C71.2053 21.6778 71.0699 22.2741 70.799 22.7325C70.5334 23.1856 70.1636 23.5346 69.6897 23.7794C69.2209 24.0241 68.6845 24.1934 68.0803 24.2872C67.4813 24.3757 66.8485 24.42 66.1818 24.42ZM66.2053 16.3575L67.4084 17.5528L66.2053 18.7637L65.0178 17.5528L66.2053 16.3575ZM63.5959 16.3575L64.799 17.5528L63.5959 18.7637L62.4006 17.5528L63.5959 16.3575ZM73.0568 13.4981H74.7443V20.9044C74.7443 21.5606 74.8537 22.0137 75.0725 22.2637C75.2912 22.5085 75.6662 22.6309 76.1975 22.6309H76.385V24.42H76.1975C75.1246 24.42 74.3329 24.1413 73.8225 23.584C73.3121 23.0215 73.0568 22.1544 73.0568 20.9825V13.4981ZM78.1818 22.6309C78.0516 22.4434 77.9345 22.2299 77.8303 21.9903C77.7261 21.7507 77.6454 21.4981 77.5881 21.2325C77.5308 20.9669 77.5022 20.7143 77.5022 20.4747C77.5022 19.8861 77.6506 19.3523 77.9475 18.8731C78.2496 18.3887 78.648 18.0033 79.1428 17.7169C79.6376 17.4252 80.1766 17.2794 80.76 17.2794C81.2496 17.2794 81.7235 17.3705 82.1818 17.5528C82.6454 17.7351 83.122 17.9955 83.6115 18.334L82.9631 19.795C82.5881 19.5762 82.2313 19.4018 81.8928 19.2715C81.5542 19.1361 81.2157 19.0684 80.8772 19.0684C80.5907 19.0684 80.3147 19.1283 80.049 19.2481C79.7886 19.3679 79.5751 19.5372 79.4084 19.7559C79.2417 19.9695 79.1584 20.2273 79.1584 20.5294C79.1584 20.8419 79.2287 21.1283 79.3693 21.3887C79.51 21.6439 79.6662 21.8523 79.8381 22.0137C80.0152 22.17 80.1454 22.2637 80.2287 22.295C80.2548 22.295 80.286 22.2924 80.3225 22.2872C80.3589 22.282 80.398 22.2741 80.4397 22.2637L83.9631 21.42V23.209C83.3121 23.407 82.6818 23.5814 82.0725 23.7325C81.4631 23.8835 80.8693 24.0111 80.2912 24.1153C79.7131 24.2195 79.1428 24.2976 78.5803 24.3497C78.023 24.3965 77.4657 24.42 76.9084 24.42H76.1037V22.6309H78.1818ZM89.4475 22.3809C89.8016 22.2611 90.1063 22.0814 90.3615 21.8419C90.622 21.6023 90.8225 21.2741 90.9631 20.8575C91.1037 20.4408 91.174 19.907 91.174 19.2559V13.4981H92.8537V19.67C92.8537 20.1023 92.8746 20.5007 92.9162 20.8653C92.9631 21.2247 93.036 21.5372 93.135 21.8028C93.2391 22.0632 93.385 22.2663 93.5725 22.4122C93.76 22.558 93.997 22.6309 94.2834 22.6309H94.5568V24.42H94.26C93.8121 24.42 93.424 24.3471 93.0959 24.2012C92.773 24.0554 92.5048 23.8497 92.2912 23.584C92.0777 23.3184 91.9058 23.0059 91.7756 22.6465C91.4579 23.0372 91.0595 23.3653 90.5803 23.6309C90.1011 23.8965 89.5542 24.0945 88.9397 24.2247C88.3303 24.3549 87.6662 24.42 86.9475 24.42C86.7079 24.42 86.4631 24.4122 86.2131 24.3965C85.9683 24.3809 85.7209 24.3627 85.4709 24.3419V22.6387C85.7938 22.6596 86.0881 22.6778 86.3537 22.6934C86.6246 22.709 86.8746 22.7169 87.1037 22.7169C87.2652 22.7169 87.4058 22.7169 87.5256 22.7169C87.6506 22.7116 87.76 22.7038 87.8537 22.6934C87.8537 22.6934 87.8225 22.5346 87.76 22.2169C87.7027 21.8991 87.6141 21.4643 87.4943 20.9122C87.3746 20.3601 87.2209 19.7325 87.0334 19.0294C86.8459 18.3262 86.622 17.5893 86.3615 16.8184C86.1011 16.0424 85.8016 15.2741 85.4631 14.5137L86.9943 13.8106C87.3277 14.5971 87.6246 15.3965 87.885 16.209C88.1506 17.0215 88.3798 17.795 88.5725 18.5294C88.7704 19.2637 88.9345 19.9226 89.0647 20.5059C89.1949 21.084 89.2912 21.5424 89.3537 21.8809C89.4162 22.2143 89.4475 22.3809 89.4475 22.3809ZM101.072 19.545C100.765 19.545 100.453 19.6179 100.135 19.7637C99.8225 19.9096 99.5048 20.1179 99.1818 20.3887C98.8641 20.6596 98.5464 20.9851 98.2287 21.3653C97.9162 21.7455 97.6089 22.1674 97.3068 22.6309H98.3303C98.9813 22.6309 99.5647 22.6023 100.08 22.545C100.601 22.4877 101.044 22.3965 101.408 22.2715C101.773 22.1413 102.052 21.9695 102.244 21.7559C102.442 21.5424 102.541 21.2794 102.541 20.9669C102.541 20.5502 102.403 20.209 102.127 19.9434C101.856 19.6778 101.505 19.545 101.072 19.545ZM95.4943 22.6309C95.5829 22.4851 95.6688 22.3471 95.7522 22.2169C95.8407 22.0814 95.9318 21.9434 96.0256 21.8028V13.4981H97.7053V19.584C97.9709 19.2924 98.2339 19.0346 98.4943 18.8106C98.76 18.5866 99.0282 18.3991 99.299 18.2481C99.5699 18.0971 99.8459 17.9825 100.127 17.9044C100.414 17.8262 100.705 17.7872 101.002 17.7872C101.638 17.7872 102.195 17.9174 102.674 18.1778C103.158 18.4382 103.536 18.8002 103.807 19.2637C104.078 19.7221 104.213 20.2533 104.213 20.8575C104.213 21.4981 104.078 22.045 103.807 22.4981C103.536 22.946 103.143 23.3132 102.627 23.5997C102.112 23.8809 101.489 24.0893 100.76 24.2247C100.036 24.3549 99.2183 24.42 98.3068 24.42H94.2756V22.6309H95.4943ZM107.744 13.4981V24.4122H106.065V13.4981H107.744Z" fill="white"/>
<defs>
<clipPath id="clip0_1_28">
<rect width="16" height="16" fill="white" transform="translate(117.34 11.22)"/>
</clipPath>
</defs>
</svg>
