<svg width="195" height="45" viewBox="0 0 195 45" fill="none" xmlns="http://www.w3.org/2000/svg">
<rect x="0.339966" y="0.219971" width="194.66" height="43.98" rx="8" fill="#4F4F4F" fill-opacity="0.5"/>
<path d="M27.7067 20.727V22.665C27.7067 23.7878 27.5477 24.7029 27.2299 25.4105C26.9171 26.118 26.4762 26.6384 25.9071 26.9716C25.3431 27.2997 24.6843 27.4638 23.9307 27.4638C23.177 27.4638 22.5156 27.2997 21.9465 26.9716C21.3775 26.6384 20.9314 26.118 20.6084 25.4105C20.2905 24.7029 20.1316 23.7878 20.1316 22.665V20.727C20.1316 19.6042 20.2905 18.6916 20.6084 17.9892C20.9263 17.2868 21.3672 16.7741 21.9312 16.4511C22.5003 16.123 23.1616 15.9589 23.9153 15.9589C24.669 15.9589 25.3303 16.123 25.8994 16.4511C26.4685 16.7741 26.912 17.2868 27.2299 17.9892C27.5477 18.6916 27.7067 19.6042 27.7067 20.727ZM25.4841 22.9572V20.4271C25.4841 19.7554 25.4226 19.2197 25.2996 18.8198C25.1817 18.4147 25.0048 18.1251 24.7689 17.9507C24.5331 17.7764 24.2485 17.6893 23.9153 17.6893C23.5872 17.6893 23.3052 17.7764 23.0693 17.9507C22.8386 18.1251 22.6618 18.4147 22.5387 18.8198C22.4157 19.2197 22.3541 19.7554 22.3541 20.4271V22.9572C22.3541 23.634 22.4157 24.1774 22.5387 24.5876C22.6618 24.9926 22.8412 25.2849 23.077 25.4643C23.318 25.6437 23.6025 25.7335 23.9307 25.7335C24.2588 25.7335 24.5382 25.6437 24.7689 25.4643C25.0048 25.2849 25.1817 24.9926 25.2996 24.5876C25.4226 24.1774 25.4841 23.634 25.4841 22.9572ZM36.7506 20.727V22.665C36.7506 23.7878 36.5917 24.7029 36.2738 25.4105C35.9611 26.118 35.5202 26.6384 34.9511 26.9716C34.3871 27.2997 33.7283 27.4638 32.9746 27.4638C32.221 27.4638 31.5596 27.2997 30.9905 26.9716C30.4214 26.6384 29.9754 26.118 29.6524 25.4105C29.3345 24.7029 29.1755 23.7878 29.1755 22.665V20.727C29.1755 19.6042 29.3345 18.6916 29.6524 17.9892C29.9702 17.2868 30.4111 16.7741 30.9751 16.4511C31.5442 16.123 32.2056 15.9589 32.9592 15.9589C33.7129 15.9589 34.3743 16.123 34.9434 16.4511C35.5125 16.7741 35.9559 17.2868 36.2738 17.9892C36.5917 18.6916 36.7506 19.6042 36.7506 20.727ZM34.5281 22.9572V20.4271C34.5281 19.7554 34.4666 19.2197 34.3435 18.8198C34.2256 18.4147 34.0487 18.1251 33.8129 17.9507C33.577 17.7764 33.2925 17.6893 32.9592 17.6893C32.6311 17.6893 32.3491 17.7764 32.1133 17.9507C31.8826 18.1251 31.7057 18.4147 31.5827 18.8198C31.4596 19.2197 31.3981 19.7554 31.3981 20.4271V22.9572C31.3981 23.634 31.4596 24.1774 31.5827 24.5876C31.7057 24.9926 31.8851 25.2849 32.121 25.4643C32.3619 25.6437 32.6465 25.7335 32.9746 25.7335C33.3027 25.7335 33.5822 25.6437 33.8129 25.4643C34.0487 25.2849 34.2256 24.9926 34.3435 24.5876C34.4666 24.1774 34.5281 23.634 34.5281 22.9572Z" fill="white"/>
<path d="M49.2024 20.9479C49.2024 20.526 49.3518 20.1744 49.6507 19.8932C49.9554 19.6119 50.3186 19.4713 50.7405 19.4713C51.1624 19.4713 51.5198 19.6119 51.8128 19.8932C52.1116 20.1744 52.261 20.526 52.261 20.9479C52.261 21.3639 52.1116 21.7155 51.8128 22.0026C51.5198 22.2838 51.1624 22.4244 50.7405 22.4244C50.3069 22.4244 49.9407 22.2838 49.6419 22.0026C49.3489 21.7213 49.2024 21.3698 49.2024 20.9479ZM49.2024 26.1246C49.2024 25.7086 49.3518 25.36 49.6507 25.0787C49.9554 24.7975 50.3186 24.6569 50.7405 24.6569C51.1624 24.6569 51.5198 24.7975 51.8128 25.0787C52.1116 25.36 52.261 25.7086 52.261 26.1246C52.261 26.5465 52.1116 26.8981 51.8128 27.1793C51.5198 27.4606 51.1624 27.6012 50.7405 27.6012C50.3069 27.6012 49.9407 27.4606 49.6419 27.1793C49.3489 26.8981 49.2024 26.5465 49.2024 26.1246Z" fill="#D42B4D"/>
<path d="M73.245 20.6225V22.5912C73.245 23.7319 73.0835 24.6616 72.7606 25.3803C72.4429 26.0991 71.995 26.6277 71.4169 26.9662C70.8439 27.2996 70.1747 27.4662 69.409 27.4662C68.6434 27.4662 67.9715 27.2996 67.3934 26.9662C66.8153 26.6277 66.3622 26.0991 66.034 25.3803C65.7111 24.6616 65.5497 23.7319 65.5497 22.5912V20.6225C65.5497 19.4819 65.7111 18.5548 66.034 17.8412C66.357 17.1277 66.8049 16.6069 67.3778 16.2787C67.9559 15.9454 68.6278 15.7787 69.3934 15.7787C70.159 15.7787 70.8309 15.9454 71.409 16.2787C71.9872 16.6069 72.4377 17.1277 72.7606 17.8412C73.0835 18.5548 73.245 19.4819 73.245 20.6225ZM70.9872 22.8881V20.3178C70.9872 19.6355 70.9247 19.0912 70.7997 18.685C70.6799 18.2735 70.5002 17.9793 70.2606 17.8022C70.021 17.6251 69.732 17.5366 69.3934 17.5366C69.0601 17.5366 68.7736 17.6251 68.534 17.8022C68.2997 17.9793 68.12 18.2735 67.995 18.685C67.87 19.0912 67.8075 19.6355 67.8075 20.3178V22.8881C67.8075 23.5756 67.87 24.1277 67.995 24.5444C68.12 24.9558 68.3023 25.2527 68.5419 25.435C68.7866 25.6173 69.0757 25.7084 69.409 25.7084C69.7424 25.7084 70.0262 25.6173 70.2606 25.435C70.5002 25.2527 70.6799 24.9558 70.7997 24.5444C70.9247 24.1277 70.9872 23.5756 70.9872 22.8881ZM82.5028 15.935V17.1459L78.1044 27.31H75.7294L80.1278 17.6928H74.4637V15.935H82.5028Z" fill="white"/>
<path d="M95.4224 20.9479C95.4224 20.526 95.5718 20.1744 95.8706 19.8932C96.1753 19.6119 96.5386 19.4713 96.9605 19.4713C97.3824 19.4713 97.7398 19.6119 98.0327 19.8932C98.3316 20.1744 98.481 20.526 98.481 20.9479C98.481 21.3639 98.3316 21.7155 98.0327 22.0026C97.7398 22.2838 97.3824 22.4244 96.9605 22.4244C96.5269 22.4244 96.1607 22.2838 95.8619 22.0026C95.5689 21.7213 95.4224 21.3698 95.4224 20.9479ZM95.4224 26.1246C95.4224 25.7086 95.5718 25.36 95.8706 25.0787C96.1753 24.7975 96.5386 24.6569 96.9605 24.6569C97.3824 24.6569 97.7398 24.7975 98.0327 25.0787C98.3316 25.36 98.481 25.7086 98.481 26.1246C98.481 26.5465 98.3316 26.8981 98.0327 27.1793C97.7398 27.4606 97.3824 27.6012 96.9605 27.6012C96.5269 27.6012 96.1607 27.4606 95.8619 27.1793C95.5689 26.8981 95.4224 26.5465 95.4224 26.1246Z" fill="#D42B4D"/>
<path d="M119.465 20.6225V22.5912C119.465 23.7319 119.303 24.6616 118.981 25.3803C118.663 26.0991 118.215 26.6277 117.637 26.9662C117.064 27.2996 116.395 27.4662 115.629 27.4662C114.863 27.4662 114.192 27.2996 113.613 26.9662C113.035 26.6277 112.582 26.0991 112.254 25.3803C111.931 24.6616 111.77 23.7319 111.77 22.5912V20.6225C111.77 19.4819 111.931 18.5548 112.254 17.8412C112.577 17.1277 113.025 16.6069 113.598 16.2787C114.176 15.9454 114.848 15.7787 115.613 15.7787C116.379 15.7787 117.051 15.9454 117.629 16.2787C118.207 16.6069 118.658 17.1277 118.981 17.8412C119.303 18.5548 119.465 19.4819 119.465 20.6225ZM117.207 22.8881V20.3178C117.207 19.6355 117.145 19.0912 117.02 18.685C116.9 18.2735 116.72 17.9793 116.481 17.8022C116.241 17.6251 115.952 17.5366 115.613 17.5366C115.28 17.5366 114.994 17.6251 114.754 17.8022C114.52 17.9793 114.34 18.2735 114.215 18.685C114.09 19.0912 114.027 19.6355 114.027 20.3178V22.8881C114.027 23.5756 114.09 24.1277 114.215 24.5444C114.34 24.9558 114.522 25.2527 114.762 25.435C115.007 25.6173 115.296 25.7084 115.629 25.7084C115.962 25.7084 116.246 25.6173 116.481 25.435C116.72 25.2527 116.9 24.9558 117.02 24.5444C117.145 24.1277 117.207 23.5756 117.207 22.8881ZM128.723 15.935V17.1459L124.324 27.31H121.949L126.348 17.6928H120.684V15.935H128.723Z" fill="white"/>
<path d="M140.742 20.9479C140.742 20.526 140.892 20.1744 141.191 19.8932C141.495 19.6119 141.859 19.4713 142.281 19.4713C142.702 19.4713 143.06 19.6119 143.353 19.8932C143.652 20.1744 143.801 20.526 143.801 20.9479C143.801 21.3639 143.652 21.7155 143.353 22.0026C143.06 22.2838 142.702 22.4244 142.281 22.4244C141.847 22.4244 141.481 22.2838 141.182 22.0026C140.889 21.7213 140.742 21.3698 140.742 20.9479ZM140.742 26.1246C140.742 25.7086 140.892 25.36 141.191 25.0787C141.495 24.7975 141.859 24.6569 142.281 24.6569C142.702 24.6569 143.06 24.7975 143.353 25.0787C143.652 25.36 143.801 25.7086 143.801 26.1246C143.801 26.5465 143.652 26.8981 143.353 27.1793C143.06 27.4606 142.702 27.6012 142.281 27.6012C141.847 27.6012 141.481 27.4606 141.182 27.1793C140.889 26.8981 140.742 26.5465 140.742 26.1246Z" fill="#D42B4D"/>
<path d="M160.993 20.6459H162.197C162.582 20.6459 162.9 20.5808 163.15 20.4506C163.4 20.3152 163.585 20.1277 163.704 19.8881C163.829 19.6433 163.892 19.3595 163.892 19.0366C163.892 18.7449 163.835 18.4871 163.72 18.2631C163.611 18.034 163.441 17.8569 163.212 17.7319C162.983 17.6017 162.694 17.5366 162.345 17.5366C162.069 17.5366 161.814 17.5912 161.579 17.7006C161.345 17.81 161.157 17.9636 161.017 18.1616C160.876 18.3595 160.806 18.5991 160.806 18.8803H158.548C158.548 18.2553 158.715 17.711 159.048 17.2475C159.387 16.784 159.84 16.422 160.407 16.1616C160.975 15.9011 161.6 15.7709 162.282 15.7709C163.053 15.7709 163.728 15.8959 164.306 16.1459C164.884 16.3907 165.335 16.7527 165.657 17.2319C165.98 17.711 166.142 18.3048 166.142 19.0131C166.142 19.3725 166.058 19.7215 165.892 20.06C165.725 20.3933 165.486 20.6954 165.173 20.9662C164.866 21.2319 164.491 21.4454 164.048 21.6069C163.605 21.7631 163.108 21.8412 162.556 21.8412H160.993V20.6459ZM160.993 22.3569V21.1928H162.556C163.176 21.1928 163.72 21.2631 164.189 21.4037C164.657 21.5444 165.051 21.7475 165.368 22.0131C165.686 22.2735 165.926 22.5834 166.087 22.9428C166.249 23.297 166.329 23.6902 166.329 24.1225C166.329 24.8308 166.152 25.435 165.798 25.935C165.444 26.4298 164.962 26.81 164.353 27.0756C163.743 27.336 163.053 27.4662 162.282 27.4662C161.803 27.4662 161.332 27.4011 160.868 27.2709C160.41 27.1355 159.993 26.935 159.618 26.6694C159.249 26.3985 158.952 26.06 158.728 25.6537C158.509 25.2423 158.4 24.7553 158.4 24.1928H160.657C160.657 24.4845 160.73 24.7449 160.876 24.9741C161.022 25.2032 161.223 25.3829 161.478 25.5131C161.738 25.6433 162.027 25.7084 162.345 25.7084C162.887 25.7084 163.308 25.5626 163.611 25.2709C163.918 24.9741 164.072 24.5834 164.072 24.0991C164.072 23.6824 163.996 23.3491 163.845 23.0991C163.694 22.8439 163.478 22.6564 163.197 22.5366C162.915 22.4168 162.582 22.3569 162.197 22.3569H160.993ZM175.532 20.6225V22.5912C175.532 23.7319 175.371 24.6616 175.048 25.3803C174.73 26.0991 174.282 26.6277 173.704 26.9662C173.131 27.2996 172.462 27.4662 171.697 27.4662C170.931 27.4662 170.259 27.2996 169.681 26.9662C169.103 26.6277 168.65 26.0991 168.322 25.3803C167.999 24.6616 167.837 23.7319 167.837 22.5912V20.6225C167.837 19.4819 167.999 18.5548 168.322 17.8412C168.644 17.1277 169.092 16.6069 169.665 16.2787C170.243 15.9454 170.915 15.7787 171.681 15.7787C172.447 15.7787 173.118 15.9454 173.697 16.2787C174.275 16.6069 174.725 17.1277 175.048 17.8412C175.371 18.5548 175.532 19.4819 175.532 20.6225ZM173.275 22.8881V20.3178C173.275 19.6355 173.212 19.0912 173.087 18.685C172.967 18.2735 172.788 17.9793 172.548 17.8022C172.308 17.6251 172.019 17.5366 171.681 17.5366C171.348 17.5366 171.061 17.6251 170.822 17.8022C170.587 17.9793 170.407 18.2735 170.282 18.685C170.157 19.0912 170.095 19.6355 170.095 20.3178V22.8881C170.095 23.5756 170.157 24.1277 170.282 24.5444C170.407 24.9558 170.59 25.2527 170.829 25.435C171.074 25.6173 171.363 25.7084 171.697 25.7084C172.03 25.7084 172.314 25.6173 172.548 25.435C172.788 25.2527 172.967 24.9558 173.087 24.5444C173.212 24.1277 173.275 23.5756 173.275 22.8881Z" fill="white"/>
</svg>
